<svg width="18" height="18" fill="none" xmlns="http://www.w3.org/2000/svg"><path d="M13.424 12.576a.6.6 0 10-.848.848l.848-.848zm3.152 4.848a.6.6 0 00.848-.848l-.848.848zm-4-4l4 4 .848-.848-4-4-.848.848zm-4.719.69A6.257 6.257 0 011.6 7.857H.4a7.457 7.457 0 007.457 7.457v-1.2zm6.257-6.257a6.257 6.257 0 01-6.257 6.257v1.2a7.457 7.457 0 007.457-7.457h-1.2zM7.857 1.6a6.257 6.257 0 016.257 6.257h1.2A7.457 7.457 0 007.857.4v1.2zm0-1.2A7.457 7.457 0 00.4 7.857h1.2A6.257 6.257 0 017.857 1.6V.4z" fill="#1E1E1E"/></svg>