<svg width="32" height="32" fill="none" xmlns="http://www.w3.org/2000/svg"><path d="M14.147 1.665c1.052-.887 2.751-.887 3.774 0l2.375 2.03c.45.376 1.308.691 1.91.691h2.555a2.913 2.913 0 012.902 2.902v2.556c0 .601.315 1.443.691 1.894l2.03 2.375c.887 1.053.887 2.751 0 3.774l-2.03 2.375c-.376.451-.691 1.293-.691 1.894v2.556a2.913 2.913 0 01-2.902 2.902h-2.556c-.601 0-1.443.315-1.894.691l-2.375 2.03c-1.053.887-2.752.887-3.774 0l-2.375-2.03c-.451-.376-1.308-.691-1.894-.691H7.262a2.913 2.913 0 01-2.902-2.902v-2.57c0-.587-.3-1.444-.676-1.88l-2.03-2.39c-.872-1.038-.872-2.721 0-3.759l2.03-2.39c.375-.451.676-1.293.676-1.88v-2.54A2.913 2.913 0 017.262 4.4h2.6c.602 0 1.444-.315 1.895-.691l2.39-2.045zm1.879 8.539v7.262" stroke="#D43822" stroke-width="1.5" stroke-linecap="round" stroke-linejoin="round"/><path d="M16.018 22.036h.014" stroke="#D43822" stroke-width="2" stroke-linecap="round" stroke-linejoin="round"/></svg>