<svg width="20" height="22" fill="none" xmlns="http://www.w3.org/2000/svg"><path d="M6 8.4a.6.6 0 000 1.2V8.4zm8 1.2a.6.6 0 100-1.2v1.2zm-8 2.8a.6.6 0 100 1.2v-1.2zm8 1.2a.6.6 0 100-1.2v1.2zm-3 2.8a.6.6 0 100 1.2v-1.2zm3 1.2a.6.6 0 100-1.2v1.2zM3.061 20.045l.353-.485-.353.485zM1.955 18.94l.485-.353-.485.353zm16.09 0l-.485-.353.485.353zm-1.106 1.106l-.353-.485.353.485zm0-18.09l.353-.486-.353.486zm1.106 1.106l-.485.353.485-.353zM3.061 1.955l.353.485-.353-.485zM1.955 3.06l.485.353-.485-.353zm9.191 2.534l.094.593-.094-.593zm-1.564 0l-.094.593.094-.593zM6 9.6h8V8.4H6v1.2zm0 4h8v-1.2H6v1.2zm5 4h3v-1.2h-3v1.2zm7.4-7.6v2h1.2v-2h-1.2zM1.6 12v-2H.4v2h1.2zm8.4 8.4c-1.888 0-3.256 0-4.318-.116-1.05-.114-1.73-.334-2.268-.724l-.706.97c.777.565 1.692.822 2.845.947 1.141.124 2.586.123 4.447.123v-1.2zM.4 12c0 1.861 0 3.306.123 4.447.125 1.153.382 2.068.947 2.845l.97-.706c-.39-.538-.61-1.217-.724-2.268C1.6 15.256 1.6 13.888 1.6 12H.4zm3.014 7.56a4.401 4.401 0 01-.974-.974l-.97.706a5.6 5.6 0 001.238 1.238l.706-.97zM18.4 12c0 1.888 0 3.256-.116 4.318-.114 1.05-.334 1.73-.724 2.268l.97.706c.565-.777.822-1.692.947-2.845.124-1.141.123-2.585.123-4.447h-1.2zM10 21.6c1.861 0 3.306 0 4.447-.123 1.153-.125 2.068-.382 2.845-.947l-.706-.97c-.538.39-1.217.61-2.268.724-1.062.115-2.43.116-4.318.116v1.2zm7.56-3.014c-.272.374-.6.702-.974.974l.706.97a5.6 5.6 0 001.238-1.238l-.97-.706zM19.6 10c0-1.861 0-3.306-.123-4.447-.125-1.153-.382-2.068-.947-2.845l-.97.706c.39.538.61 1.217.724 2.268.115 1.062.116 2.43.116 4.318h1.2zm-3.014-7.56c.374.272.702.6.974.974l.97-.706a5.6 5.6 0 00-1.238-1.239l-.706.971zM1.6 10c0-1.888 0-3.256.116-4.318.114-1.05.334-1.73.724-2.268l-.97-.706C.905 3.485.648 4.4.523 5.553.399 6.694.4 8.139.4 10h1.2zm1.108-8.53A5.6 5.6 0 001.47 2.708l.971.706a4.4 4.4 0 01.974-.974l-.706-.97zm8.344 3.533a4.4 4.4 0 01-1.376 0l-.188 1.185a5.6 5.6 0 001.752 0l-.188-1.185zm4.964-3.776c-1.238 1.237-2.148 2.134-2.938 2.756-.78.614-1.393.92-2.026 1.02l.188 1.185c.913-.145 1.716-.581 2.58-1.263.857-.674 1.821-1.626 3.045-2.85l-.849-.848zM10 1.6c1.66 0 2.92 0 3.927.08 1.005.079 1.7.233 2.243.507l.54-1.071c-.747-.377-1.623-.549-2.69-.633C12.957.4 11.642.4 10 .4v1.2zm6.17.587c.148.074.285.158.416.253l.706-.97a4.21 4.21 0 00-.581-.354l-.54 1.071zM3.648 1.86c1.293 1.293 2.3 2.298 3.184 3.006.894.715 1.717 1.173 2.656 1.322l.188-1.185c-.651-.103-1.281-.424-2.094-1.074-.821-.657-1.775-1.606-3.086-2.917l-.848.848zM10 .4C8.562.4 7.377.4 6.393.455 5.41.511 4.586.625 3.877.87l.39 1.134c.556-.191 1.251-.296 2.194-.35C7.403 1.6 8.55 1.6 10 1.6V.4zM3.877.869a4.403 4.403 0 00-1.169.6l.706.971c.25-.181.527-.324.854-.437L3.877.87z" fill="#D43822"/></svg>