<svg width="34" height="32" fill="none" xmlns="http://www.w3.org/2000/svg"><path d="M32.063 13.534l-1.547 6.6c-1.326 5.7-3.947 8.005-8.873 7.53a16.584 16.584 0 01-2.558-.426l-2.652-.631c-6.584-1.563-8.621-4.816-7.074-11.415l1.547-6.616c.316-1.342.695-2.51 1.169-3.473 1.847-3.821 4.989-4.847 10.262-3.6l2.637.616c6.616 1.547 8.637 4.815 7.09 11.415z" stroke="#D43822" stroke-width="1.5" stroke-linecap="round" stroke-linejoin="round"/><path d="M21.642 27.665c-.979.663-2.21 1.216-3.71 1.705l-2.495.821c-6.268 2.021-9.568.332-11.604-5.936l-2.021-6.237C-.21 11.75 1.464 8.434 7.732 6.413l2.495-.82a16.143 16.143 0 011.847-.49c-.473.963-.852 2.131-1.168 3.474l-1.547 6.615c-1.548 6.6.489 9.852 7.073 11.415l2.652.632c.916.22 1.769.363 2.558.426zm-3.82-17.147l7.657 1.942m-9.205 4.168l4.58 1.169" stroke="#D43822" stroke-width="1.5" stroke-linecap="round" stroke-linejoin="round"/></svg>