<svg width="25" height="32" fill="none" xmlns="http://www.w3.org/2000/svg"><path d="M1 14.525v7.452c0 2.73 0 2.73 2.579 4.468l7.092 4.094c1.065.615 2.804.615 3.869 0l7.092-4.094c2.58-1.739 2.58-1.739 2.58-4.468v-7.452c0-2.73 0-2.73-2.58-4.469L14.54 5.963c-1.065-.615-2.804-.615-3.869 0L3.58 10.056C1 11.796 1 11.796 1 14.526z" stroke="#D43822" stroke-width="1.5" stroke-linecap="round" stroke-linejoin="round"/><path d="M20.853 9.442V5.498C20.853 2.5 19.353 1 16.354 1H8.857C5.858 1 4.36 2.5 4.36 5.498v3.839m9.19 5.143l.855 1.334c.135.21.435.42.66.48l1.53.39c.944.24 1.199 1.05.584 1.8l-1.005 1.214c-.15.195-.27.54-.255.78l.09 1.574c.06.975-.63 1.47-1.529 1.11l-1.47-.585c-.224-.09-.6-.09-.824 0l-1.47.585c-.9.36-1.589-.15-1.529-1.11l.09-1.574c.015-.24-.105-.6-.255-.78l-1.005-1.215c-.614-.75-.36-1.56.585-1.799l1.53-.39c.24-.06.54-.285.66-.48l.854-1.334c.54-.81 1.38-.81 1.904 0z" stroke="#D43822" stroke-width="1.5" stroke-linecap="round" stroke-linejoin="round"/></svg>