<svg width="32" height="32" fill="none" xmlns="http://www.w3.org/2000/svg"><path d="M16 19h1.5c1.65 0 3-1.35 3-3V1H7a5.994 5.994 0 00-5.235 3.075" stroke="#D43822" stroke-width="1.5" stroke-linecap="round" stroke-linejoin="round"/><path d="M1 23.5C1 25.99 3.01 28 5.5 28H7c0-1.65 1.35-3 3-3s3 1.35 3 3h6c0-1.65 1.35-3 3-3s3 1.35 3 3h1.5c2.49 0 4.5-2.01 4.5-4.5V19h-4.5c-.825 0-1.5-.675-1.5-1.5V13c0-.825.675-1.5 1.5-1.5h1.935L25.87 7.015A3.025 3.025 0 0023.26 5.5H20.5V16c0 1.65-1.35 3-3 3H16" stroke="#D43822" stroke-width="1.5" stroke-linecap="round" stroke-linejoin="round"/><path d="M10 31a3 3 0 100-6 3 3 0 000 6zm12 0a3 3 0 100-6 3 3 0 000 6zm9-15v3h-4.5c-.825 0-1.5-.675-1.5-1.5V13c0-.825.675-1.5 1.5-1.5h1.935L31 16zM1 10h9m-9 4.5h6M1 19h3" stroke="#D43822" stroke-width="1.5" stroke-linecap="round" stroke-linejoin="round"/></svg>