<svg width="169" height="45" fill="none" xmlns="http://www.w3.org/2000/svg"><path d="M73.125 15.5V33H69.1V18.8h-7.9V33h-4.025V15.5h15.95zM93.388 33l-.025-10.475-5.15 8.625h-1.8l-5.15-8.425V33h-3.8V15.5h3.35l6.55 10.875 6.45-10.875h3.35l.025 17.5h-3.8zm16.497.3c-1.816 0-3.458-.392-4.925-1.175-1.45-.783-2.591-1.858-3.425-3.225-.816-1.383-1.225-2.933-1.225-4.65 0-1.717.409-3.258 1.225-4.625a8.81 8.81 0 013.425-3.25c1.467-.783 3.109-1.175 4.925-1.175 1.817 0 3.45.392 4.9 1.175a8.802 8.802 0 013.425 3.25c.834 1.367 1.25 2.908 1.25 4.625s-.416 3.267-1.25 4.65c-.833 1.367-1.975 2.442-3.425 3.225-1.45.783-3.083 1.175-4.9 1.175zm0-3.45c1.034 0 1.967-.233 2.8-.7a5.104 5.104 0 001.95-2c.484-.85.725-1.817.725-2.9s-.241-2.05-.725-2.9a4.934 4.934 0 00-1.95-1.975c-.833-.483-1.766-.725-2.8-.725-1.033 0-1.966.242-2.8.725a5.119 5.119 0 00-1.975 1.975c-.466.85-.7 1.817-.7 2.9s.234 2.05.7 2.9a5.3 5.3 0 001.975 2c.834.467 1.767.7 2.8.7zm13.307 3.35c-.683 0-1.258-.233-1.725-.7-.467-.467-.7-1.05-.7-1.75 0-.717.233-1.292.7-1.725.467-.45 1.042-.675 1.725-.675s1.258.225 1.725.675c.467.433.7 1.008.7 1.725 0 .7-.233 1.283-.7 1.75-.467.467-1.042.7-1.725.7zm13.018-17.7c1.55 0 2.892.258 4.025.775 1.15.517 2.033 1.25 2.65 2.2.617.95.925 2.075.925 3.375 0 1.283-.308 2.408-.925 3.375-.617.95-1.5 1.683-2.65 2.2-1.133.5-2.475.75-4.025.75h-3.525V33h-4.05V15.5h7.575zm-.225 9.375c1.217 0 2.142-.258 2.775-.775.633-.533.95-1.283.95-2.25 0-.983-.317-1.733-.95-2.25-.633-.533-1.558-.8-2.775-.8h-3.3v6.075h3.3zm31.466-.675c0 2.317-.792 4.142-2.375 5.475-1.567 1.317-3.825 2.05-6.775 2.2v1.9h-3.725V31.85c-2.967-.167-5.242-.908-6.825-2.225-1.567-1.333-2.35-3.142-2.35-5.425 0-2.3.783-4.1 2.35-5.4 1.583-1.317 3.858-2.067 6.825-2.25v-1.8h3.725v1.775c2.95.167 5.208.917 6.775 2.25 1.583 1.333 2.375 3.142 2.375 5.425zm-9.15 4.5c1.766-.167 3.083-.617 3.95-1.35.866-.75 1.3-1.808 1.3-3.175 0-2.667-1.75-4.15-5.25-4.45V28.7zm-8.975-4.5c0 2.633 1.75 4.133 5.25 4.5v-8.975c-1.784.167-3.109.617-3.975 1.35-.85.717-1.275 1.758-1.275 3.125zM31.459 34.74c-.19.442-.35.901-.578 1.324-2.475 4.589-6.14 7.667-11.398 8.62-4.677.849-9.03.012-12.886-2.814C3.062 39.276.956 35.773.19 31.478c-.479-2.684-.011-5.257.931-7.77 1.098-2.928 2.51-5.71 4.05-8.43 2.51-4.43 5.34-8.658 8.265-12.824.33-.468.64-.95.967-1.42.933-1.344 2.793-1.396 3.725-.05 1.918 2.773 3.789 5.578 5.678 8.37.064.095.112.2.212.382-.335-.08-.598-.13-.856-.205-2.203-.641-4.37-.507-6.47.381-2.127.9-3.573 2.524-4.632 4.513-1.45 2.723-1.476 5.541-.53 8.415.919 2.797 2.48 5.208 4.521 7.319a36.637 36.637 0 009.542 7.13c.488.253.93.298 1.413.006 1.319-.798 2.647-1.58 3.97-2.37.136-.08.268-.165.402-.248l.082.06-.001.003z" fill="#D43822"/><path d="M28.188 24.303c-.342-.995-.646-1.884-.955-2.771a1.596 1.596 0 00-.202-.427c-.285-.383-.808-.309-1.032.147-.226.463-.435.935-.653 1.402l-.1-.013c-.084-.478-.171-.956-.253-1.434-.28-1.643-.556-3.287-.838-4.93-.073-.424-.294-.622-.647-.608-.32.012-.49.202-.531.494-.115.793-.207 1.59-.323 2.385-.23 1.577-.468 3.152-.705 4.727-.004.027-.021.053-.113.094-.056-.235-.12-.468-.168-.706-.19-.952-.372-1.905-.56-2.856-.055-.272-.204-.471-.497-.508-.296-.038-.49.128-.61.372-.356.72-.717 1.44-1.048 2.172-.178.395-.431.578-.884.575-1.473-.013-2.945.006-4.419.012-.449.002-.53-.059-.641-.49-.492-1.91-.633-3.828.07-5.709 1.028-2.752 2.912-4.635 5.875-5.248 2.509-.518 4.751.13 6.694 1.782.668.567.664.577 1.335.002 1.48-1.27 3.2-1.954 5.15-1.936 3.77.035 6.653 2.485 7.558 5.819.496 1.825.349 3.642-.113 5.448-.085.336-.247.43-.683.425-1.13-.014-2.262-.036-3.393-.05-1.814-.025-3.628-.05-5.441-.069-.714-.006-1.041.23-1.329.876-.144.325-.333.63-.546 1.025l.002-.002z" fill="#D43822"/><path d="M20.318 21.895c.158.782.32 1.563.475 2.346.219 1.107.43 2.215.648 3.322.084.433.27.629.593.633.356.004.57-.2.633-.66.122-.9.225-1.802.339-2.703.16-1.267.322-2.533.485-3.8.03-.235.068-.469.102-.704l.089-.001c.085.468.172.936.252 1.405.179 1.05.35 2.102.535 3.151.028.162.084.338.183.465.268.342.76.233.974-.225.255-.545.478-1.105.714-1.66.041-.096.086-.19.157-.348.183.504.349.953.508 1.404.153.428.301.857.447 1.287.093.275.226.513.552.543.335.03.529-.176.673-.445.324-.606.666-1.204.968-1.822.18-.368.414-.534.842-.529 1.772.023 3.544.014 5.317.022.907.004 1.814.018 2.72.03.436.004.489.076.305.46-.909 1.902-2.144 3.578-3.605 5.094-2.49 2.583-5.352 4.683-8.496 6.414-.26.143-.49.206-.775.043-2.99-1.708-5.806-3.64-8.216-6.11-1.59-1.63-2.95-3.422-3.96-5.465-.162-.327-.073-.461.346-.466 1.163-.01 2.327-.009 3.49-.01.321 0 .64.009.961.007.688-.004 1.063-.277 1.303-.91.103-.27.243-.525.366-.787l.077.018h-.002z" fill="#676767"/></svg>