<svg width="111" height="20" fill="none" xmlns="http://www.w3.org/2000/svg"><path opacity=".3" d="M16.125 1.5V19H12.1V4.8H4.2V19H.175V1.5h15.95zM36.388 19l-.025-10.475-5.15 8.625h-1.8l-5.15-8.425V19h-3.8V1.5h3.35l6.55 10.875L36.813 1.5h3.35l.025 17.5h-3.8zm16.497.3c-1.816 0-3.458-.392-4.925-1.175-1.45-.783-2.591-1.858-3.425-3.225-.816-1.383-1.225-2.933-1.225-4.65 0-1.717.409-3.258 1.225-4.625a8.804 8.804 0 013.425-3.25c1.467-.783 3.11-1.175 4.925-1.175 1.817 0 3.45.392 4.9 1.175a8.805 8.805 0 013.425 3.25c.834 1.367 1.25 2.908 1.25 4.625s-.416 3.267-1.25 4.65c-.833 1.367-1.975 2.442-3.425 3.225-1.45.783-3.083 1.175-4.9 1.175zm0-3.45c1.034 0 1.967-.233 2.8-.7a5.113 5.113 0 001.95-2c.484-.85.725-1.817.725-2.9s-.241-2.05-.725-2.9a4.942 4.942 0 00-1.95-1.975c-.833-.483-1.766-.725-2.8-.725-1.033 0-1.966.242-2.8.725A5.111 5.111 0 0048.11 7.35c-.466.85-.7 1.817-.7 2.9s.234 2.05.7 2.9a5.292 5.292 0 001.975 2c.834.467 1.767.7 2.8.7zm13.307 3.35c-.683 0-1.258-.233-1.725-.7-.467-.467-.7-1.05-.7-1.75 0-.717.233-1.292.7-1.725.467-.45 1.042-.675 1.725-.675s1.258.225 1.725.675c.467.433.7 1.008.7 1.725 0 .7-.233 1.283-.7 1.75-.467.467-1.042.7-1.725.7zM79.21 1.5c1.55 0 2.892.258 4.025.775 1.15.517 2.033 1.25 2.65 2.2.617.95.925 2.075.925 3.375 0 1.283-.308 2.408-.925 3.375-.617.95-1.5 1.683-2.65 2.2-1.133.5-2.475.75-4.025.75h-3.525V19h-4.05V1.5h7.575zm-.225 9.375c1.217 0 2.142-.258 2.775-.775.633-.533.95-1.283.95-2.25 0-.983-.317-1.733-.95-2.25-.633-.533-1.558-.8-2.775-.8h-3.3v6.075h3.3zm31.466-.675c0 2.317-.792 4.142-2.375 5.475-1.567 1.317-3.825 2.05-6.775 2.2v1.9h-3.725V17.85c-2.967-.167-5.242-.908-6.825-2.225-1.567-1.333-2.35-3.142-2.35-5.425 0-2.3.783-4.1 2.35-5.4 1.583-1.317 3.858-2.067 6.825-2.25V.75h3.725v1.775c2.95.167 5.208.917 6.775 2.25 1.583 1.333 2.375 3.142 2.375 5.425zm-9.15 4.5c1.766-.167 3.083-.617 3.95-1.35.866-.75 1.3-1.808 1.3-3.175 0-2.667-1.75-4.15-5.25-4.45V14.7zm-8.975-4.5c0 2.633 1.75 4.133 5.25 4.5V5.725c-1.784.167-3.109.617-3.975 1.35-.85.717-1.275 1.758-1.275 3.125z" fill="#fff"/></svg>