<?xml version="1.0" encoding="utf-8"?><svg viewBox="0 0 48 48" xmlns="http://www.w3.org/2000/svg" xmlns:xlink="http://www.w3.org/1999/xlink"><style>:root>svg{display:none}:root>svg:target{display:block}</style><svg fill="none" viewBox="0 0 17 12" id="icon-arrow-next" xmlns="http://www.w3.org/2000/svg"><path d="M16 6H0M11 1l5 5-5 5" stroke="currentColor" stroke-width="1.2"/></svg><svg fill="none" viewBox="0 0 17 12" id="icon-arrow-prev" xmlns="http://www.w3.org/2000/svg"><path d="M1 6h16M6 1L1 6l5 5" stroke="currentColor" stroke-width="1.2"/></svg><svg fill="none" viewBox="0 0 10 6" id="icon-caret" xmlns="http://www.w3.org/2000/svg"><path d="M1 .657l4.243 4.242L9.485.657" stroke="#1E1E1E" stroke-width="1.2"/></svg><svg fill="none" viewBox="0 0 10 6" id="icon-caret-accent" xmlns="http://www.w3.org/2000/svg"><path d="M1 .657l4.243 4.242L9.485.657" stroke="#D43822" stroke-width="1.2"/></svg><svg fill="none" viewBox="0 0 30 30" id="icon-close" xmlns="http://www.w3.org/2000/svg"><path d="M7.929 22.071L22.071 7.929M7.929 7.929l14.142 14.142" stroke="currentColor" stroke-width="1.5"/></svg><svg fill="none" viewBox="0 0 18 18" id="icon-dandruff" xmlns="http://www.w3.org/2000/svg"><path d="M13.424 12.576a.6.6 0 10-.848.848l.848-.848zm3.152 4.848a.6.6 0 00.848-.848l-.848.848zm-4-4l4 4 .848-.848-4-4-.848.848zm-4.719.69A6.257 6.257 0 011.6 7.857H.4a7.457 7.457 0 007.457 7.457v-1.2zm6.257-6.257a6.257 6.257 0 01-6.257 6.257v1.2a7.457 7.457 0 007.457-7.457h-1.2zM7.857 1.6a6.257 6.257 0 016.257 6.257h1.2A7.457 7.457 0 007.857.4v1.2zm0-1.2A7.457 7.457 0 00.4 7.857h1.2A6.257 6.257 0 017.857 1.6V.4z" fill="#1E1E1E"/></svg><svg fill="none" viewBox="0 0 12 18" id="icon-download" xmlns="http://www.w3.org/2000/svg"><path d="M1 11.667l5 4.571 5-4.571M1 17h10M6 1v15.238" stroke="#1E1E1E" stroke-width="1.2" stroke-linecap="round"/></svg><svg fill="none" viewBox="0 0 20 22" id="icon-licenses" xmlns="http://www.w3.org/2000/svg"><path d="M6 8.4a.6.6 0 000 1.2V8.4zm8 1.2a.6.6 0 100-1.2v1.2zm-8 2.8a.6.6 0 100 1.2v-1.2zm8 1.2a.6.6 0 100-1.2v1.2zm-3 2.8a.6.6 0 100 1.2v-1.2zm3 1.2a.6.6 0 100-1.2v1.2zM3.061 20.045l.353-.485-.353.485zM1.955 18.94l.485-.353-.485.353zm16.09 0l-.485-.353.485.353zm-1.106 1.106l-.353-.485.353.485zm0-18.09l.353-.486-.353.486zm1.106 1.106l-.485.353.485-.353zM3.061 1.955l.353.485-.353-.485zM1.955 3.06l.485.353-.485-.353zm9.191 2.534l.094.593-.094-.593zm-1.564 0l-.094.593.094-.593zM6 9.6h8V8.4H6v1.2zm0 4h8v-1.2H6v1.2zm5 4h3v-1.2h-3v1.2zm7.4-7.6v2h1.2v-2h-1.2zM1.6 12v-2H.4v2h1.2zm8.4 8.4c-1.888 0-3.256 0-4.318-.116-1.05-.114-1.73-.334-2.268-.724l-.706.97c.777.565 1.692.822 2.845.947 1.141.124 2.586.123 4.447.123v-1.2zM.4 12c0 1.861 0 3.306.123 4.447.125 1.153.382 2.068.947 2.845l.97-.706c-.39-.538-.61-1.217-.724-2.268C1.6 15.256 1.6 13.888 1.6 12H.4zm3.014 7.56a4.401 4.401 0 01-.974-.974l-.97.706a5.6 5.6 0 001.238 1.238l.706-.97zM18.4 12c0 1.888 0 3.256-.116 4.318-.114 1.05-.334 1.73-.724 2.268l.97.706c.565-.777.822-1.692.947-2.845.124-1.141.123-2.585.123-4.447h-1.2zM10 21.6c1.861 0 3.306 0 4.447-.123 1.153-.125 2.068-.382 2.845-.947l-.706-.97c-.538.39-1.217.61-2.268.724-1.062.115-2.43.116-4.318.116v1.2zm7.56-3.014c-.272.374-.6.702-.974.974l.706.97a5.6 5.6 0 001.238-1.238l-.97-.706zM19.6 10c0-1.861 0-3.306-.123-4.447-.125-1.153-.382-2.068-.947-2.845l-.97.706c.39.538.61 1.217.724 2.268.115 1.062.116 2.43.116 4.318h1.2zm-3.014-7.56c.374.272.702.6.974.974l.97-.706a5.6 5.6 0 00-1.238-1.239l-.706.971zM1.6 10c0-1.888 0-3.256.116-4.318.114-1.05.334-1.73.724-2.268l-.97-.706C.905 3.485.648 4.4.523 5.553.399 6.694.4 8.139.4 10h1.2zm1.108-8.53A5.6 5.6 0 001.47 2.708l.971.706a4.4 4.4 0 01.974-.974l-.706-.97zm8.344 3.533a4.4 4.4 0 01-1.376 0l-.188 1.185a5.6 5.6 0 001.752 0l-.188-1.185zm4.964-3.776c-1.238 1.237-2.148 2.134-2.938 2.756-.78.614-1.393.92-2.026 1.02l.188 1.185c.913-.145 1.716-.581 2.58-1.263.857-.674 1.821-1.626 3.045-2.85l-.849-.848zM10 1.6c1.66 0 2.92 0 3.927.08 1.005.079 1.7.233 2.243.507l.54-1.071c-.747-.377-1.623-.549-2.69-.633C12.957.4 11.642.4 10 .4v1.2zm6.17.587c.148.074.285.158.416.253l.706-.97a4.21 4.21 0 00-.581-.354l-.54 1.071zM3.648 1.86c1.293 1.293 2.3 2.298 3.184 3.006.894.715 1.717 1.173 2.656 1.322l.188-1.185c-.651-.103-1.281-.424-2.094-1.074-.821-.657-1.775-1.606-3.086-2.917l-.848.848zM10 .4C8.562.4 7.377.4 6.393.455 5.41.511 4.586.625 3.877.87l.39 1.134c.556-.191 1.251-.296 2.194-.35C7.403 1.6 8.55 1.6 10 1.6V.4zM3.877.869a4.403 4.403 0 00-1.169.6l.706.971c.25-.181.527-.324.854-.437L3.877.87z" fill="#D43822"/></svg><svg fill="none" viewBox="0 0 48 48" id="icon-play" xmlns="http://www.w3.org/2000/svg"><rect x=".75" y=".75" width="46.5" height="46.5" rx="23.25" fill="#D43822" stroke="#D43822" stroke-width="1.5"/><path d="M22 29V19l7 5-7 5z" fill="#fff"/></svg><svg fill="none" viewBox="0 0 16 16" id="icon-plus" xmlns="http://www.w3.org/2000/svg"><path d="M16 8H0M8 16V0" stroke="#1E1E1E" stroke-width="1.2"/></svg><svg fill="none" viewBox="0 0 32 32" id="icon-warning" xmlns="http://www.w3.org/2000/svg"><path d="M14.147 1.665c1.052-.887 2.751-.887 3.774 0l2.375 2.03c.45.376 1.308.691 1.91.691h2.555a2.913 2.913 0 012.902 2.902v2.556c0 .601.315 1.443.691 1.894l2.03 2.375c.887 1.053.887 2.751 0 3.774l-2.03 2.375c-.376.451-.691 1.293-.691 1.894v2.556a2.913 2.913 0 01-2.902 2.902h-2.556c-.601 0-1.443.315-1.894.691l-2.375 2.03c-1.053.887-2.752.887-3.774 0l-2.375-2.03c-.451-.376-1.308-.691-1.894-.691H7.262a2.913 2.913 0 01-2.902-2.902v-2.57c0-.587-.3-1.444-.676-1.88l-2.03-2.39c-.872-1.038-.872-2.721 0-3.759l2.03-2.39c.375-.451.676-1.293.676-1.88v-2.54A2.913 2.913 0 017.262 4.4h2.6c.602 0 1.444-.315 1.895-.691l2.39-2.045zM16.026 10.204v7.262" stroke="#D43822" stroke-width="1.5" stroke-linecap="round" stroke-linejoin="round"/><path d="M16.018 22.036h.014" stroke="#D43822" stroke-width="2" stroke-linecap="round" stroke-linejoin="round"/></svg></svg>